<?xml version="1.0" encoding="UTF-8"?>
<svg width="445px" height="75px" viewBox="0 0 445 75" version="1.1" xmlns="http://www.w3.org/2000/svg" xmlns:xlink="http://www.w3.org/1999/xlink">
    <!-- Generator: Sketch 51.1 (57501) - http://www.bohemiancoding.com/sketch -->
    <title>gismeteo-logo-for-white-bg</title>
    <desc>Created with Sketch.</desc>
    <defs></defs>
    <g id="Page-1" stroke="none" stroke-width="1" fill="none" fill-rule="evenodd">
        <g id="Gismeteo">
            <path d="M155.13,23 C154.910167,23.0232952 154.737992,23.1996699 154.72,23.42 L154.72,73.1 C154.73456,73.3201239 154.909876,73.4954398 155.13,73.51 L166.93,73.51 C167.152128,73.4960043 167.330657,73.3217264 167.35,73.1 L167.35,40.9 C167.35,35.37 171.7,32.82 177.21,32.82 C182.72,32.82 187.21,35.37 187.21,40.9 L187.21,73.16 C187.225079,73.3837199 187.405982,73.5603154 187.63,73.57 L199.43,73.57 C199.650124,73.5554398 199.82544,73.3801239 199.84,73.16 L199.84,40.9 C199.84,35.37 204.19,32.82 209.71,32.82 C215.23,32.82 219.58,35.37 219.58,40.9 L219.58,73.16 C219.595079,73.3837199 219.775982,73.5603154 220,73.57 L232.1,73.57 C232.324018,73.5603154 232.504921,73.3837199 232.52,73.16 L232.52,41.41 C232.52,28.15 224.03,22.01 213.63,22.01 C203.23,22.01 197.5,27.95 196.23,29.54 C194.93,27.51 190.8,22 181,22 C176.399719,21.8570309 171.919428,23.4816732 168.48,26.54 C167.901586,27.1145484 167.436787,27.7930869 167.11,28.54 L166.91,28.54 C167.17052,27.5606069 167.311546,26.5532824 167.33,25.54 L167.33,23.47 C167.307414,23.2480671 167.131933,23.0725855 166.91,23.05 L155.11,23.05 L155.13,23 Z M316.52,33.87 L329.69,33.87 C329.906626,33.8560579 330.080714,33.6862155 330.1,33.47 L330.1,23.47 C330.082008,23.2496699 329.909833,23.0732952 329.69,23.05 L316.52,23.05 L316.52,6 C316.515347,5.77210373 316.337417,5.58549412 316.11,5.57 L304.32,5.57 C304.084959,5.57974023 303.89514,5.76524486 303.88,6 L303.88,23 L295.4,23 C295.178067,23.0225855 295.002586,23.1980671 294.98,23.42 L294.98,33.42 C294.999874,33.6397955 295.179497,33.8108652 295.4,33.82 L303.89,33.82 L303.89,60.82 C303.89,66.87 306.66,74.61 318.32,74.61 C322.261409,74.6531681 326.190491,74.1620329 330,73.15 C330.191736,73.0956726 330.323019,72.9192613 330.32,72.72 L329.26,63.29 C329.236996,63.1272731 329.103871,63.0024687 328.94,62.99 C326.400242,63.8003489 323.74557,64.1921326 321.08,64.15 C318,64.15 316.94,62.66 316.51,60 L316.51,33.87 L316.52,33.87 Z M418.42,74.63 C435.08,74.63 444.85,62.98 444.85,48.31 C444.85,33.64 435.08,22 418.42,22 C401.76,22 392.1,33.67 392.1,48.31 C392.1,62.95 401.76,74.63 418.42,74.63 Z M418.42,64.54 C408.87,64.54 404.84,56.92 404.84,48.31 C404.84,39.7 408.84,32.08 418.42,32.08 C428,32.08 432.1,39.72 432.1,48.31 C432.1,56.9 427.97,64.54 418.42,64.54 Z M288.55,52 C288.770857,51.9791203 288.948633,51.8096125 288.98,51.59 L288.98,46.28 C289,33.67 282.93,22 267.32,22 C250.66,22 241.43,33.67 241.43,48.31 C241.43,62.95 248.95,74.63 268.7,74.63 C276.76,74.63 283.77,73.47 285.89,72.63 C286.08329,72.5717195 286.214109,72.391843 286.21,72.19 L284.93,62.56 C284.922691,62.460496 284.874414,62.3684877 284.796691,62.3059297 C284.718967,62.2433716 284.618767,62.2158747 284.52,62.23 C279.873574,63.819714 274.990621,64.6076144 270.08,64.56 C258.94,64.56 254.08,59.37 254.08,52.05 L288.57,52.05 L288.55,52 Z M267.01,32 C273.69,32 277.3,35.92 277.3,41.87 L254.06,41.87 C254.06,36.03 258.83,32 267.01,32 Z M384.13,52 C384.349292,51.9757269 384.525318,51.8078886 384.56,51.59 L384.56,46.28 C384.56,33.64 378.49,21.97 362.89,21.97 C346.24,22 337,33.67 337,48.31 C337,62.95 344.53,74.63 364.27,74.63 C372.34,74.63 379.35,73.47 381.46,72.63 C381.655224,72.5724843 381.789448,72.3935191 381.79,72.19 L380.51,62.56 C380.499947,62.4616328 380.450939,62.371382 380.373911,62.3093836 C380.296882,62.2473852 380.198243,62.2187979 380.1,62.23 C375.449369,63.8166886 370.563652,64.6044894 365.65,64.56 C354.51,64.56 349.65,59.37 349.65,52.05 L384.15,52.05 L384.13,52 Z M362.58,32 C369.27,32 372.87,35.92 372.87,41.87 L349.63,41.87 C349.63,36.11 354.4,32.08 362.58,32.08 L362.58,32 Z" id="meteo" fill="#000000"></path>
            <path d="M80.85,4.44 L80.85,4.48 L92.51,4.48 C92.7467415,4.49581737 92.9305278,4.6927313 92.93,4.93 L92.93,17.29 C92.914921,17.5137199 92.7340182,17.6903154 92.51,17.7 L80.85,17.7 C80.6259818,17.6903154 80.445079,17.5137199 80.43,17.29 L80.43,4.89 C80.4294722,4.6527313 80.6132585,4.45581737 80.85,4.44 Z M80.85,23 L80.85,23.05 L92.51,23.05 C92.7356348,23.0646018 92.9153982,23.2443652 92.93,23.47 L92.93,73.1 C92.919541,73.3258225 92.736009,73.5049848 92.51,73.51 L80.85,73.51 C80.623991,73.5049848 80.440459,73.3258225 80.43,73.1 L80.43,23.42 C80.4446018,23.1943652 80.6243652,23.0146018 80.85,23 Z M123.93,74.63 L123.99,74.62 C117.736659,74.6382163 111.49237,74.1432217 105.32,73.14 C105.232024,73.1566888 105.141372,73.1302928 105.076107,73.0689833 C105.010842,73.0076737 104.978837,72.9188469 104.99,72.83 L106.05,62.64 C106.055213,62.4654739 106.195474,62.3252132 106.37,62.32 C111.720756,63.8000414 117.24834,64.5435569 122.8,64.53 C130.97,64.53 133.1,63.16 133.1,59.88 C133.1,55.42 129.06,55.1 118.88,52.54 C109.08,50.12 103.88,46.31 103.88,36.84 C103.88,27.19 110.67,22 124.26,22 C130.218523,21.9739908 136.164733,22.5434869 142.01,23.7 C142.196596,23.7493586 142.32744,23.9170033 142.33,24.11 L141.33,34.21 C141.243951,34.4196676 141.022976,34.5405787 140.8,34.5 C135.660216,32.8185707 130.277246,32.0008189 124.87,32.08 C118.72,32.08 115.54,32.63 115.54,36.63 C115.54,39.72 119.57,40.16 127.22,42.16 C138.27,45.02 145.58,47.78 145.58,58.84 C145.58,69.22 139.93,74.63 123.93,74.63 Z M37.44,32.19 L37.44,32.16 L67.78,32.16 C68.0095294,32.169713 68.1948898,32.3507626 68.21,32.58 L68.21,68.58 C68.1645425,68.8199219 68.0036504,69.0219724 67.78,69.12 C60.78,72.62 52.42,74.62 37.78,74.62 C15.5,74.62 0.64,59.24 0.64,38.01 C0.64,16.78 15.48,0.35 42.64,0.35 C49.8752632,0.270328268 57.0977314,0.977821675 64.18,2.46 C64.3113433,2.46989578 64.4328493,2.53332987 64.5160504,2.63544039 C64.5992516,2.7375509 64.6368367,2.86936495 64.62,3 L63.52,14.56 C63.4147294,14.8162164 63.1404984,14.9596603 62.87,14.9 C57.67,13.39 51.84,12.23 41.33,12.23 C22.97,12.23 13.85,23.18 13.85,38.03 C13.85,52.88 22.97,62.34 38.68,62.34 C44.3087871,62.4316815 49.9302305,61.8950282 55.44,60.74 L55.44,43.87 L37.44,43.87 C37.2162801,43.854921 37.0396846,43.6740182 37.03,43.45 L37.03,32.61 C37.0396846,32.3859818 37.2162801,32.205079 37.44,32.19 Z" id="gis" fill="#0099FF"></path>
        </g>
    </g>
</svg>