<?xml version="1.0" standalone="no"?>
<!DOCTYPE svg PUBLIC "-//W3C//DTD SVG 20010904//EN"
 "http://www.w3.org/TR/2001/REC-SVG-20010904/DTD/svg10.dtd">
<svg version="1.0" xmlns="http://www.w3.org/2000/svg"
 width="512.000000pt" height="512.000000pt" viewBox="0 0 512.000000 512.000000"
 preserveAspectRatio="xMidYMid meet">
<metadata>
Created by potrace 1.14, written by Peter Selinger 2001-2017
</metadata>
<g transform="translate(0.000000,512.000000) scale(0.100000,-0.100000)"
fill="#000000" stroke="none">
<path d="M1060 4948 c-54 -37 -74 -72 -75 -131 -2 -59 7 -86 47 -141 31 -44
150 -138 195 -154 37 -12 62 -1 158 71 115 86 157 185 121 282 -32 83 -136
119 -219 75 -37 -20 -37 -20 -69 0 -46 28 -115 27 -158 -2z"/>
<path d="M3659 4921 c-68 -37 -95 -142 -56 -217 30 -57 140 -152 208 -181 33
-14 81 9 169 80 92 73 124 169 84 253 -35 74 -131 105 -200 65 -34 -21 -38
-21 -55 -5 -29 26 -107 28 -150 5z"/>
<path d="M1843 4704 c-78 -38 -77 -156 2 -227 11 -10 44 -34 73 -53 l53 -35
43 25 c24 14 64 45 89 70 36 35 47 53 52 90 5 29 3 57 -5 76 -23 56 -98 82
-152 54 -22 -11 -33 -12 -43 -4 -22 18 -78 20 -112 4z"/>
<path d="M4324 4666 c-203 -74 -219 -350 -25 -442 53 -26 121 -29 180 -9 59
19 130 91 148 149 15 49 10 143 -10 181 -18 33 -78 92 -117 114 -32 18 -135
23 -176 7z m115 -156 c24 -13 45 -64 37 -94 -9 -35 -51 -59 -91 -52 -40 8 -54
24 -62 69 -5 30 -1 40 22 61 29 27 63 33 94 16z"/>
<path d="M630 4508 c-41 -17 -65 -57 -65 -110 0 -40 5 -53 33 -80 28 -28 39
-33 82 -33 43 0 54 5 82 33 28 28 33 39 33 82 0 42 -5 54 -31 81 -34 34 -91
46 -134 27z"/>
<path d="M1506 4268 c-86 -8 -221 -33 -276 -51 -19 -6 -37 -11 -40 -12 -25 -3
-102 -30 -106 -36 -3 -5 -13 -9 -22 -9 -17 0 -142 -61 -212 -103 -344 -206
-583 -584 -638 -1007 -12 -90 -7 -409 7 -490 45 -261 130 -490 267 -720 70
-117 57 -67 168 -635 25 -127 52 -253 62 -280 68 -202 217 -352 419 -421 192
-66 442 -25 595 96 21 17 43 30 49 30 7 0 38 -17 69 -39 113 -76 313 -191 467
-268 l157 -78 88 0 87 0 184 92 c174 86 418 231 556 330 67 48 65 48 129 -4
52 -42 192 -107 267 -122 233 -50 480 31 639 208 95 106 164 270 184 436 9 77
11 98 19 160 4 27 8 64 11 80 21 167 26 203 29 225 2 14 7 52 11 85 3 33 8 67
9 76 2 9 6 40 10 70 9 73 17 99 63 204 73 167 131 376 149 541 10 84 10 338 1
414 -16 130 -65 313 -109 404 -11 22 -19 43 -19 47 0 4 -19 40 -42 81 -103
182 -242 334 -411 448 -278 187 -624 276 -962 246 -277 -23 -538 -146 -742
-348 l-63 -61 -57 57 c-261 261 -619 388 -997 354z m2989 -2685 c-4 -32 -8
-69 -11 -83 -2 -14 -6 -50 -10 -80 -3 -30 -7 -62 -9 -70 -2 -8 -7 -44 -10 -80
-8 -69 -8 -74 -26 -160 -42 -205 -193 -365 -387 -410 -67 -15 -185 -15 -242 0
-77 21 -226 101 -209 113 14 10 242 189 261 205 289 242 515 455 604 572 21
27 40 50 42 50 1 0 0 -26 -3 -57z m-3495 -337 c66 -59 313 -266 385 -322 22
-17 89 -67 148 -112 l108 -81 -40 -26 c-100 -63 -254 -90 -362 -65 -126 29
-245 110 -311 212 -59 91 -63 104 -128 433 -17 83 -30 156 -30 164 0 8 37 -21
83 -65 45 -44 111 -106 147 -138z"/>
</g>
</svg>
